<?xml version="1.0" standalone="no"?>
<!DOCTYPE svg PUBLIC "-//W3C//DTD SVG 20010904//EN"
 "http://www.w3.org/TR/2001/REC-SVG-20010904/DTD/svg10.dtd">
<svg version="1.0" xmlns="http://www.w3.org/2000/svg"
 width="209.000000pt" height="209.000000pt" viewBox="0 0 209.000000 209.000000"
 preserveAspectRatio="xMidYMid meet">
<metadata>
Created by potrace 1.11, written by Peter Selinger 2001-2013
</metadata>
<g transform="translate(0.000000,209.000000) scale(0.100000,-0.100000)"
fill="#000000" stroke="none">
<path d="M770 1837 c-167 -57 -284 -186 -325 -358 -32 -136 -12 -348 43 -456
80 -155 226 -265 403 -301 l79 -17 0 -242 0 -243 65 0 65 0 0 243 0 243 90 18
c169 34 283 109 370 242 75 114 95 191 95 359 0 128 -2 146 -28 215 -15 41
-47 102 -72 135 -52 70 -151 148 -214 170 -62 21 -166 19 -216 -4 -51 -23
-120 -98 -136 -147 -9 -28 -14 -162 -16 -477 l-4 -438 -22 7 c-196 60 -297
244 -297 539 0 256 67 408 207 472 37 17 53 30 53 44 0 26 -56 25 -140 -4z
m497 -128 c105 -39 191 -211 200 -404 12 -220 -54 -386 -184 -462 -39 -23
-150 -63 -174 -63 -12 0 -11 803 1 855 16 72 81 103 157 74z"/>
</g>
</svg>
